<?xml version="1.0" encoding="UTF-8"?>
<svg id="_レイヤー_1" data-name="レイヤー 1" xmlns="http://www.w3.org/2000/svg" viewBox="0 0 509.87 162">
  <defs>
    <style>
      .cls-1 {
        fill: #999;
      }

      .cls-1, .cls-2, .cls-3, .cls-4, .cls-5 {
        stroke-width: 0px;
      }

      .cls-2 {
        fill: #666;
      }

      .cls-4 {
        fill: #ff8500;
      }

      .cls-5 {
        fill: #9d9d9d;
      }
    </style>
  </defs>
  <path class="cls-4" d="m415.21,113.67l23.01-27.68h16.54l-20.25,27.68h-19.29Zm29.72,28.52h-29.12l44.81-21.09h-24.32l-.96-5.03h18.69l4.31-33.07h-41.46l1.8-5.15h15.46l4.07-31.51h15.82l-4.07,31.51h10.42l6.22-49.81h16.3l-3.23,25.49h24.68l-1.68,5.27h-23.73l-2.28,19.05h33.19l-1.68,5.15h-33.67l-3.95,33.43,10.42-4.91h22.77l-58.83,30.68Zm43.38-33.07l-10.78-23.13h14.86l12.58,23.13h-16.66Z"/>
  <ellipse class="cls-4" cx="338.77" cy="56.88" rx="2.55" ry="5.9"/>
  <path class="cls-3" d="m114.97,63.22l14.54-4.79-1.74-9.88-15.3.47c-1.32-4.01-3.11-7.77-5.31-11.22l9.17-10.27-6.45-7.68-11.81,7.31c-3.37-2.98-7.13-5.5-11.17-7.49l2.56-12.31-9.43-3.43-6.14,11.42c-3.47-.64-7.05-.92-10.68-.81L58.43,0l-9.88,1.74.47,15.3c-3.81,1.25-7.4,2.93-10.71,4.98l-11.41-10.19-7.68,6.45,8.06,13.02c-2.63,2.95-4.9,6.19-6.77,9.67l-14.99-3.12-3.43,9.43,13.48,7.24c-.79,3.81-1.15,7.75-1.02,11.77L0,71.08l1.74,9.88,15.3-.47c1.25,3.81,2.93,7.4,4.98,10.71l-10.19,11.41,6.45,7.68,13.02-8.06c2.17,1.93,4.5,3.67,6.97,5.2h0v12.44h19.03v-5.43c2.94.44,5.94.62,8.99.53l1.62,4.91h-3.15v6.98h5.45l.88,2.66,10.09,4.47-.68-21.51c3.81-1.25,7.4-2.93,10.71-4.98l11.41,10.19,7.68-6.45-8.06-13.02c2.63-2.95,4.9-6.19,6.77-9.67l14.99,3.12,3.43-9.43-13.48-7.24c.79-3.81,1.15-7.75,1.02-11.77Zm-43.83,37.75c-20,3.53-39.08-9.83-42.61-29.83s9.83-39.08,29.83-42.61c20-3.53,39.08,9.83,42.61,29.83s-9.83,39.08-29.83,42.61Z"/>
  <path class="cls-4" d="m133.63,63.58l1.68-5.27h35.59l2.52-19.89h17.73l-2.52,19.89h36.67l-1.56,5.27h-90.11Zm18.93,65.9l-6.89-66.73h17.13l6.41,66.73h-16.66Z"/>
  <path class="cls-2" d="m243.83,75.74l-8.63,63.39h31.78l15.54-59.51h8.41l-6.6,55.64h-11.09l-1.06,3.87h23.68l7.48-63.39h-59.51Zm12.06,59.51h-7.31l7.13-55.64h14.05l-13.87,55.64Z"/>
  <path class="cls-4" d="m316.7,102.71l2.28-7.43h85.26l-2.16,7.43h-85.38Z"/>
  <path class="cls-4" d="m110.72,105.58l1.8-5.15h-40.49l.72-6.98c12.57-3.49,21.8-15.01,21.8-28.7,0-16.45-13.34-29.79-29.79-29.79s-29.79,13.34-29.79,29.79c0,13.46,8.93,24.83,21.18,28.52l-3.04,24.59-5.15-2.28h-8.39l7.4-15.76h-15.7l-22.97,42.36h18.69l9.35-19.65,37.86,18.45h32.11l-37.27-16.18,2.38-19.23h39.29Z"/>
  <polygon class="cls-3" points="121.77 138.12 123.45 132.84 173.42 132.84 194.98 67.9 213.56 67.9 190.19 132.84 220.39 132.84 218.83 138.12 121.77 138.12"/>
  <polyline class="cls-3" points="470.56 116.43 480.99 111.51 503.76 111.51 444.92 142.19 415.8 142.19 460.62 121.1"/>
  <path class="cls-1" d="m435.77,145.93l-3.82-2.23c-.38-.23-.61-.65-.58-1.1.06-.74.06-1.47.02-2.2-.03-.44.21-.86.6-1.08l3.87-2.15c.51-.29.74-.91.52-1.46l-1.83-4.54c-.22-.54-.82-.84-1.39-.69l-4.28,1.13c-.43.11-.89-.03-1.18-.36-.47-.56-.99-1.08-1.54-1.57-.34-.3-.46-.76-.34-1.19l1.22-4.26c.16-.57-.12-1.17-.67-1.4l-4.5-1.92c-.54-.23-1.17-.02-1.47.49l-2.24,3.83c-.23.38-.65.61-1.1.58-.73-.06-1.47-.07-2.2-.02-.44.03-.86-.21-1.08-.6l-2.16-3.87c-.29-.52-.91-.74-1.46-.52l-4.54,1.83c-.55.22-.85.82-.7,1.38l1.13,4.29c.11.43-.03.89-.36,1.18-.56.47-1.08.99-1.57,1.54-.3.34-.76.46-1.19.34l-4.26-1.21c-.57-.17-1.17.12-1.4.67l-1.92,4.5c-.23.54-.02,1.17.49,1.47l3.82,2.22c.38.23.61.65.58,1.1-.06.74-.07,1.47-.02,2.2.03.44-.21.86-.6,1.08l-3.87,2.15c-.51.29-.74.92-.52,1.47l1.83,4.54c.22.55.82.85,1.39.69l4.28-1.12c.43-.11.89.03,1.18.36.47.56.99,1.08,1.54,1.58.33.29.46.76.34,1.19l-1.21,4.26c-.16.57.12,1.17.67,1.4l4.5,1.92c.54.23,1.17.02,1.47-.49l2.23-3.83c.23-.38.65-.61,1.1-.58.74.06,1.47.07,2.2.02.44-.03.86.21,1.08.6l2.15,3.87c.29.52.92.74,1.46.52l4.54-1.83c.55-.22.85-.82.7-1.39l-1.13-4.28c-.11-.43.03-.89.36-1.18.56-.47,1.08-.99,1.58-1.54.3-.34.76-.46,1.19-.34l4.25,1.22c.57.16,1.17-.12,1.4-.67l1.92-4.5c.23-.54.02-1.18-.49-1.47Zm-19.96,3.71c-4.58,0-8.29-3.71-8.29-8.29s3.71-8.29,8.29-8.29,8.29,3.71,8.29,8.29-3.71,8.29-8.29,8.29Z"/>
  <ellipse class="cls-4" cx="246.21" cy="58.62" rx="2.23" ry="4.13"/>
  <ellipse class="cls-4" cx="257.5" cy="60.53" rx="2.21" ry="2.25"/>
  <ellipse class="cls-4" cx="303.24" cy="53.52" rx="2.83" ry="3.36"/>
  <ellipse class="cls-4" cx="314.64" cy="56.57" rx="2.54" ry="2.05"/>
  <ellipse class="cls-4" cx="405.2" cy="56.39" rx="2.37" ry="1.87"/>
  <polygon class="cls-4" points="235.64 51 237.89 60.87 233.11 60.22 235.64 51"/>
  <circle class="cls-5" cx="415.8" cy="141.35" r="3.57"/>
  <g>
    <path class="cls-3" d="m237.6,63.41l-.42-2.21s0-.04-.03-.06c-.02-.01-.04-.02-.07-.02h-3.12s-.05,0-.07.02c-.02.01-.03.03-.03.06l-.4,2.21c-.01.11-.08.17-.21.17h-1.46c-.06,0-.11-.02-.14-.06-.03-.04-.04-.09-.03-.15l2.86-13.04c.03-.12.1-.17.21-.17h1.71c.13,0,.2.06.21.17l2.88,13.04v.04c0,.11-.06.17-.17.17h-1.5c-.12,0-.19-.06-.21-.17Zm-3.36-3.74h2.55s.06-.03.06-.08l-1.3-6.81s-.03-.04-.04-.04c-.01,0-.03.01-.04.04l-1.28,6.81c0,.05.02.08.06.08Z"/>
    <path class="cls-3" d="m248.01,50.16h1.46c.13,0,.19.06.19.19v13.04c0,.13-.06.19-.19.19h-1.46c-.13,0-.19-.06-.19-.19v-.31s0-.04-.03-.06c-.02-.01-.04,0-.07.02-.24.23-.52.4-.82.52-.31.11-.61.17-.92.17-.84,0-1.51-.28-2-.83s-.74-1.29-.74-2.2v-3.99c0-.95.25-1.69.74-2.23.49-.54,1.16-.81,2-.81.31,0,.61.06.92.17.31.11.58.29.82.52.03.03.05.03.07.02.02-.01.03-.03.03-.06v-3.97c0-.13.06-.19.19-.19Zm-.64,11.63c.25-.24.4-.55.45-.93v-4.31c-.05-.38-.2-.69-.45-.93-.25-.24-.55-.35-.91-.35-.41,0-.74.15-1.01.44-.26.29-.39.67-.39,1.13v3.74c0,.46.13.84.39,1.13.26.29.6.44,1.01.44.36,0,.66-.12.91-.35Z"/>
    <path class="cls-3" d="m259.8,54.55c.59.59.89,1.36.89,2.32v6.52c0,.13-.06.19-.19.19h-1.46c-.13,0-.19-.06-.19-.19v-.42s0-.04-.03-.06c-.02-.01-.04,0-.07.02-.45.54-1.11.81-1.98.81-.73,0-1.37-.21-1.93-.62-.56-.42-.83-1.15-.83-2.21s.34-1.93,1.01-2.44c.67-.52,1.55-.78,2.64-.78h1.11c.05,0,.08-.03.08-.08v-.56c0-.54-.13-.97-.38-1.29-.26-.33-.59-.49-1-.49-.32,0-.59.11-.81.33-.22.22-.35.5-.38.84,0,.13-.06.19-.19.19h-1.55c-.13,0-.19-.06-.19-.19.06-.82.39-1.48.98-1.99s1.32-.77,2.19-.77c.93,0,1.7.29,2.29.88Zm-1.45,7.15c.33-.28.5-.68.5-1.19v-1.3c0-.05-.03-.08-.08-.08h-1.17c-.51,0-.92.14-1.23.41-.31.28-.46.67-.46,1.2,0,.46.12.81.35,1.04s.54.35.92.35c.45,0,.84-.14,1.17-.42Z"/>
    <path class="cls-3" d="m265.89,62.91c-.58-.55-.87-1.29-.87-2.22v-3.97c0-.91.29-1.64.87-2.21s1.36-.84,2.35-.84c.65,0,1.22.12,1.72.37.49.25.87.59,1.13,1.02s.39.91.39,1.45v.25c0,.13-.06.19-.19.19l-1.46.06c-.13,0-.19-.06-.19-.19v-.19c0-.37-.13-.69-.4-.96s-.6-.4-1-.4-.74.15-1,.44c-.26.29-.38.67-.38,1.13v3.74c0,.46.13.84.38,1.13s.59.44,1,.44.73-.13,1-.4c.27-.27.4-.59.4-.96v-.19c0-.13.06-.19.19-.19l1.46.02c.13,0,.19.06.19.19v.29c0,.83-.29,1.51-.88,2.04s-1.37.8-2.36.8-1.77-.27-2.35-.82Z"/>
    <path class="cls-3" d="m281.54,54.51c.43.54.64,1.31.64,2.31v6.58c0,.13-.06.19-.19.19h-1.46c-.13,0-.19-.06-.19-.19v-6.42c0-.54-.12-.95-.35-1.25s-.55-.44-.96-.44-.75.14-.99.43c-.24.29-.37.69-.39,1.22,0,.08,0,.11-.02.11v6.35c0,.13-.06.19-.19.19h-1.46c-.13,0-.19-.06-.19-.19v-13.04c0-.13.06-.19.19-.19h1.46c.13,0,.19.06.19.19v4.18s.01.04.04.05c.03,0,.05,0,.08-.05.46-.56,1.11-.84,1.94-.84s1.42.27,1.85.81Z"/>
    <path class="cls-3" d="m286.9,51.95c-.23-.23-.35-.52-.35-.88s.12-.65.35-.88.52-.35.88-.35.67.11.89.34.34.52.34.89-.12.65-.35.88-.52.35-.88.35-.65-.12-.88-.35Zm-.02,11.45v-9.38c0-.13.06-.19.19-.19h1.46c.13,0,.19.06.19.19v9.38c0,.13-.06.19-.19.19h-1.46c-.13,0-.19-.06-.19-.19Z"/>
    <path class="cls-3" d="m305.32,63.43l-1.76-5.71s-.04-.06-.08-.06h-1.34c-.05,0-.08.03-.08.08v5.66c0,.13-.06.19-.19.19h-1.46c-.13,0-.19-.06-.19-.19v-13.04c0-.13.06-.19.19-.19h3.43c.65,0,1.23.16,1.73.48.5.32.88.77,1.16,1.35.27.58.41,1.24.41,1.98,0,.81-.17,1.5-.5,2.1-.33.59-.79,1.03-1.36,1.29-.04.04-.05.08-.04.11l1.96,5.89.02.08c0,.09-.06.13-.17.13h-1.5c-.12,0-.19-.05-.23-.15Zm-3.26-11.6v4.29c0,.05.03.08.08.08h1.42c.52,0,.95-.2,1.27-.6.32-.4.48-.94.48-1.6s-.16-1.24-.48-1.64c-.32-.4-.74-.6-1.27-.6h-1.42c-.05,0-.08.03-.08.08Z"/>
    <path class="cls-3" d="m317.48,59.46h-4.33c-.05,0-.08.03-.08.08v1.04c0,.46.13.84.38,1.13s.59.44,1,.44c.36,0,.66-.11.9-.33.24-.22.4-.5.46-.84.04-.1.11-.15.21-.15l1.42.08c.06,0,.11.02.14.06.03.04.04.08.03.13-.09.83-.41,1.48-.95,1.95-.54.47-1.28.7-2.21.7-.98,0-1.77-.27-2.35-.82s-.87-1.28-.87-2.21v-3.99c0-.91.29-1.64.87-2.21s1.36-.84,2.35-.84,1.78.28,2.36.84.86,1.3.86,2.21v2.55c0,.13-.06.19-.19.19Zm-4.03-3.76c-.26.29-.38.67-.38,1.13v1.02c0,.05.03.08.08.08h2.63c.05,0,.08-.03.08-.08v-1.02c0-.46-.13-.84-.38-1.13-.26-.29-.59-.44-1.02-.44s-.74.15-1,.44Z"/>
    <path class="cls-3" d="m322.21,51.95c-.23-.23-.35-.52-.35-.88s.12-.65.35-.88.52-.35.88-.35.67.11.89.34.34.52.34.89-.12.65-.35.88-.52.35-.88.35-.65-.12-.88-.35Zm-.02,11.45v-9.38c0-.13.06-.19.19-.19h1.46c.13,0,.19.06.19.19v9.38c0,.13-.06.19-.19.19h-1.46c-.13,0-.19-.06-.19-.19Z"/>
    <path class="cls-3" d="m336.23,62.78c-.64-.64-.96-1.49-.96-2.55v-6.69c0-1.06.32-1.91.96-2.56.64-.65,1.48-.97,2.53-.97s1.91.32,2.56.97c.65.65.97,1.5.97,2.56v6.69c0,1.06-.32,1.91-.97,2.55s-1.5.96-2.56.96-1.89-.32-2.53-.96Zm3.76-1.14c.31-.34.46-.78.46-1.33v-6.86c0-.55-.15-.99-.46-1.33-.31-.34-.72-.51-1.23-.51s-.9.17-1.2.51c-.3.34-.45.78-.45,1.33v6.86c0,.55.15.99.45,1.33.3.34.7.51,1.2.51s.92-.17,1.23-.51Z"/>
    <path class="cls-3" d="m352.63,54.51c.43.54.64,1.31.64,2.31v6.58c0,.13-.06.19-.19.19h-1.46c-.13,0-.19-.06-.19-.19v-6.42c0-.54-.12-.95-.35-1.25s-.55-.44-.96-.44-.75.14-.99.43c-.24.29-.37.69-.39,1.22,0,.08,0,.11-.02.11v6.35c0,.13-.06.19-.19.19h-1.46c-.13,0-.19-.06-.19-.19v-9.38c0-.13.06-.19.19-.19h1.46c.13,0,.19.06.19.19v.52s.01.04.04.05c.03,0,.05,0,.08-.05.46-.56,1.11-.84,1.94-.84s1.42.27,1.85.81Z"/>
    <path class="cls-3" d="m357.78,63.39v-13.04c0-.13.06-.19.19-.19h1.46c.13,0,.19.06.19.19v13.04c0,.13-.06.19-.19.19h-1.46c-.13,0-.19-.06-.19-.19Z"/>
    <path class="cls-3" d="m363.93,67.34s-.04-.08-.04-.13v-1.13c0-.13.06-.19.19-.19.41-.01.73-.08.97-.19.24-.11.43-.33.58-.65s.27-.79.37-1.4l-.02-.1-2.45-9.51-.02-.06c0-.1.06-.15.19-.15h1.57c.13,0,.2.06.21.17l1.4,6.92s.03.06.04.06c.01,0,.03-.02.04-.06l1.38-6.92c.03-.12.1-.17.21-.17l1.59.02c.06,0,.11.02.14.06.03.04.04.09,0,.15l-2.63,10.2c-.24.88-.49,1.54-.73,1.97-.24.43-.58.73-1.01.91s-1.04.27-1.83.27h-.1s-.05-.02-.08-.06Z"/>
    <path class="cls-3" d="m387.25,51.75h-4.31c-.05,0-.08.03-.08.08v4.16c0,.05.03.08.08.08h2.65c.13,0,.19.06.19.19v1.21c0,.13-.06.19-.19.19h-2.65c-.05,0-.08.03-.08.08v4.18c0,.05.03.08.08.08h4.31c.13,0,.19.06.19.19v1.21c0,.13-.06.19-.19.19h-6.04c-.13,0-.19-.06-.19-.19v-13.04c0-.13.06-.19.19-.19h6.04c.13,0,.19.06.19.19v1.21c0,.13-.06.19-.19.19Z"/>
    <path class="cls-3" d="m393.57,63.41l-2.36-9.38-.02-.08c0-.09.06-.13.17-.13h1.63c.13,0,.2.06.21.17l1.38,6.58s.03.06.04.06.03-.02.04-.06l1.36-6.58c.03-.12.1-.17.21-.17l1.63.02c.06,0,.11.02.14.06.03.04.04.09,0,.15l-2.34,9.36c-.01.11-.08.17-.21.17h-1.69c-.12,0-.19-.06-.21-.17Z"/>
    <path class="cls-3" d="m408.2,59.46h-4.33c-.05,0-.08.03-.08.08v1.04c0,.46.13.84.38,1.13s.59.44,1,.44c.36,0,.66-.11.9-.33.24-.22.4-.5.46-.84.04-.1.11-.15.21-.15l1.42.08c.06,0,.11.02.14.06.03.04.04.08.03.13-.09.83-.41,1.48-.95,1.95-.54.47-1.28.7-2.21.7-.98,0-1.77-.27-2.35-.82s-.87-1.28-.87-2.21v-3.99c0-.91.29-1.64.87-2.21s1.36-.84,2.35-.84,1.78.28,2.36.84.86,1.3.86,2.21v2.55c0,.13-.06.19-.19.19Zm-4.03-3.76c-.26.29-.38.67-.38,1.13v1.02c0,.05.03.08.08.08h2.63c.05,0,.08-.03.08-.08v-1.02c0-.46-.13-.84-.38-1.13-.26-.29-.59-.44-1.02-.44s-.74.15-1,.44Z"/>
    <path class="cls-3" d="m418.55,54.51c.43.54.64,1.31.64,2.31v6.58c0,.13-.06.19-.19.19h-1.46c-.13,0-.19-.06-.19-.19v-6.42c0-.54-.12-.95-.35-1.25s-.55-.44-.96-.44-.75.14-.99.43c-.24.29-.37.69-.39,1.22,0,.08,0,.11-.02.11v6.35c0,.13-.06.19-.19.19h-1.46c-.13,0-.19-.06-.19-.19v-9.38c0-.13.06-.19.19-.19h1.46c.13,0,.19.06.19.19v.52s.01.04.04.05c.03,0,.05,0,.08-.05.46-.56,1.11-.84,1.94-.84s1.42.27,1.85.81Z"/>
    <path class="cls-3" d="m427.4,55.17h-1.34c-.05,0-.08.03-.08.08v5.39c0,.51.09.87.27,1.06.18.2.46.29.84.28h.17c.13,0,.19.06.19.19v1.23c0,.13-.06.19-.19.19h-.59c-.82,0-1.44-.16-1.85-.48-.42-.32-.62-.93-.62-1.82v-6.04c0-.05-.03-.08-.08-.08h-.75c-.13,0-.19-.06-.19-.19v-.96c0-.13.06-.19.19-.19h.75c.05,0,.08-.03.08-.08v-2.17c0-.13.06-.19.19-.19h1.4c.13,0,.19.06.19.19v2.17c0,.05.03.08.08.08h1.34c.13,0,.19.06.19.19v.96c0,.13-.06.19-.19.19Z"/>
  </g>
</svg>